<svg width="60" height="60" viewBox="0 0 60 60" fill="none" xmlns="http://www.w3.org/2000/svg">
<path d="M59.2 11.1C59.2 16.9044 52.3666 25.5647 49.4181 29.0219C48.9787 29.5306 48.3312 29.7272 47.7416 29.6H37C34.9534 29.6 33.3 31.2534 33.3 33.3C33.3 35.3466 34.9534 37 37 37H48.1C54.2281 37 59.2 41.9719 59.2 48.1C59.2 54.2281 54.2281 59.2 48.1 59.2H16.1413C17.1472 58.0553 18.3728 56.5869 19.61 54.945C20.3384 53.9738 21.09 52.91 21.8069 51.8H48.1C50.1466 51.8 51.8 50.1466 51.8 48.1C51.8 46.0534 50.1466 44.4 48.1 44.4H37C30.8719 44.4 25.9 39.4281 25.9 33.3C25.9 27.1719 30.8719 22.2 37 22.2H41.6019C39.1737 18.5578 37 14.3722 37 11.1C37 4.97188 41.9719 0 48.1 0C54.2281 0 59.2 4.97188 59.2 11.1ZM13.5397 56.5522C13.1003 57.0494 12.7072 57.4888 12.3719 57.8588L12.1637 58.09L12.1406 58.0669C11.4469 58.5988 10.4525 58.5294 9.82812 57.8588C6.91437 54.6906 0 46.5391 0 40.7C0 34.5719 4.97188 29.6 11.1 29.6C17.2281 29.6 22.2 34.5719 22.2 40.7C22.2 44.1688 19.7603 48.4469 17.1703 52.0197C15.9331 53.7194 14.6613 55.2572 13.6091 56.4713L13.5397 56.5522ZM14.8 40.7C14.8 38.6534 13.1466 37 11.1 37C9.05344 37 7.4 38.6534 7.4 40.7C7.4 42.7466 9.05344 44.4 11.1 44.4C13.1466 44.4 14.8 42.7466 14.8 40.7ZM48.1 14.8C50.1466 14.8 51.8 13.1466 51.8 11.1C51.8 9.05344 50.1466 7.4 48.1 7.4C46.0534 7.4 44.4 9.05344 44.4 11.1C44.4 13.1466 46.0534 14.8 48.1 14.8Z" fill="black"/>
</svg>
