<svg width="60" height="60" viewBox="0 0 60 60" fill="none" xmlns="http://www.w3.org/2000/svg">
<path d="M55.5116 22.2009H56.425C57.9628 22.2009 59.2 20.9637 59.2 19.4259V2.77589C59.2 1.65433 58.5294 0.636826 57.4888 0.209013C56.4481 -0.218799 55.2572 0.0240127 54.4594 0.810263L48.4816 6.79964C43.3594 2.5562 36.7687 0.000887744 29.6 0.000887744C14.6844 0.000887744 2.34719 11.0315 0.300625 25.3806C0.0115623 27.404 1.41062 29.2771 3.43406 29.5662C5.4575 29.8553 7.33062 28.4446 7.61969 26.4328C9.1575 15.6681 18.4191 7.40089 29.6 7.40089C34.7337 7.40089 39.4513 9.13526 43.2091 12.0606L37.8094 17.4603C37.0116 18.2581 36.7803 19.449 37.2081 20.4896C37.6359 21.5303 38.6534 22.2009 39.775 22.2009H55.5116ZM58.9109 33.8212C59.2 31.7978 57.7894 29.9246 55.7775 29.6356C53.7656 29.3465 51.8809 30.7571 51.5919 32.769C50.0541 43.5221 40.7925 51.7893 29.6116 51.7893C24.4778 51.7893 19.7603 50.055 16.0025 47.1296L21.3906 41.7415C22.1884 40.9437 22.4197 39.7528 21.9919 38.7121C21.5641 37.6715 20.5466 37.0009 19.425 37.0009H2.775C1.23719 37.0009 0 38.2381 0 39.7759V56.4259C0 57.5475 0.670625 58.565 1.71125 58.9928C2.75188 59.4206 3.94281 59.1778 4.74062 58.3915L10.73 52.4021C15.8406 56.6456 22.4312 59.2009 29.6 59.2009C44.5156 59.2009 56.8528 48.1703 58.8994 33.8212H58.9109Z" fill="black"/>
</svg>
