<svg width="68" height="67" viewBox="0 0 68 67" fill="none" xmlns="http://www.w3.org/2000/svg">
<path d="M12.0337 6.475C12.0337 2.90219 14.9359 0 18.5087 0C22.0815 0 24.9837 2.90219 24.9837 6.475C24.9837 10.0478 22.0815 12.95 18.5087 12.95C14.9359 12.95 12.0337 10.0478 12.0337 6.475ZM11.1087 27.4378L8.49555 30.0509C7.8018 30.7447 7.40867 31.6812 7.40867 32.6641V37C7.40867 39.0466 5.75523 40.7 3.70867 40.7C1.66211 40.7 0.00867196 39.0466 0.00867196 37V32.6641C0.00867196 29.7156 1.17648 26.8944 3.25773 24.8131L7.31617 20.7547C9.95242 18.1184 13.5137 16.6384 17.2368 16.6384C21.5034 16.6384 25.5387 18.5809 28.198 21.9109L30.2793 24.5125C30.9846 25.3912 32.0484 25.9 33.1699 25.9H37.0087C39.0552 25.9 40.7087 27.5534 40.7087 29.6C40.7087 31.6466 39.0552 33.3 37.0087 33.3H33.1699C29.7937 33.3 26.614 31.7622 24.498 29.1375L24.0587 28.5941V41.9141L28.0477 45.3366C30.0943 47.0941 31.4355 49.5222 31.8171 52.1931L33.274 62.3797C33.563 64.4031 32.1524 66.2762 30.129 66.5653C28.1055 66.8544 26.2324 65.4437 25.9434 63.4203L24.4865 53.2337C24.3593 52.3434 23.9084 51.5341 23.2262 50.9444L14.9821 43.8797C12.5193 41.7753 11.1087 38.6881 11.1087 35.4506V27.4378ZM11.1202 46.5969C11.3977 46.8628 11.6752 47.1287 11.9759 47.3831L17.2946 51.9387L17.0402 52.8175C16.5199 54.6328 15.5487 56.2862 14.219 57.6159L6.3218 65.5131C4.87648 66.9584 2.5293 66.9584 1.08398 65.5131C-0.361328 64.0678 -0.361328 61.7206 1.08398 60.2753L8.98117 52.3781C9.42055 51.9387 9.7443 51.3837 9.91773 50.7825L11.1202 46.5969ZM58.3993 43.5906C57.3124 44.6775 55.5549 44.6775 54.4796 43.5906C53.4043 42.5037 53.3927 40.7463 54.4796 39.6709L58.064 36.0866H46.2587C44.7209 36.0866 43.4837 34.8494 43.4837 33.3116C43.4837 31.7737 44.7209 30.5366 46.2587 30.5366H58.064L54.4796 26.9522C53.3927 25.8653 53.3927 24.1078 54.4796 23.0325C55.5665 21.9572 57.324 21.9456 58.3993 23.0325L66.7243 31.3575C67.8112 32.4444 67.8112 34.2019 66.7243 35.2772L58.3993 43.6022V43.5906Z" fill="black"/>
</svg>
