<svg width="45" height="60" viewBox="0 0 45 60" fill="none" xmlns="http://www.w3.org/2000/svg">
<path d="M7.4 5.55H20.35V15.725C20.35 20.3269 24.0731 24.05 28.675 24.05H38.85V51.8C38.85 52.8175 38.0175 53.65 37 53.65H7.4C6.3825 53.65 5.55 52.8175 5.55 51.8V7.4C5.55 6.3825 6.3825 5.55 7.4 5.55ZM25.9 7.85094L36.5491 18.5H28.675C27.1372 18.5 25.9 17.2628 25.9 15.725V7.85094ZM7.4 0C3.31844 0 0 3.31844 0 7.4V51.8C0 55.8816 3.31844 59.2 7.4 59.2H37C41.0816 59.2 44.4 55.8816 44.4 51.8V21.5641C44.4 19.5984 43.6253 17.7137 42.2378 16.3263L28.0622 2.16219C26.6747 0.774687 24.8016 0 22.8359 0H7.4ZM13.875 29.6C12.3372 29.6 11.1 30.8372 11.1 32.375C11.1 33.9128 12.3372 35.15 13.875 35.15H30.525C32.0628 35.15 33.3 33.9128 33.3 32.375C33.3 30.8372 32.0628 29.6 30.525 29.6H13.875ZM13.875 40.7C12.3372 40.7 11.1 41.9372 11.1 43.475C11.1 45.0128 12.3372 46.25 13.875 46.25H30.525C32.0628 46.25 33.3 45.0128 33.3 43.475C33.3 41.9372 32.0628 40.7 30.525 40.7H13.875Z" fill="black"/>
</svg>
