<svg width="54" height="58" viewBox="0 0 54 58" fill="none" xmlns="http://www.w3.org/2000/svg">
<path d="M27.75 0C29.045 0 30.2591 0.682187 30.9181 1.79219L42.0181 20.2922C42.7003 21.4369 42.7234 22.8591 42.0644 24.0153C41.4053 25.1716 40.1797 25.9 38.85 25.9H16.65C15.3203 25.9 14.0831 25.1831 13.4356 24.0269C12.7881 22.8706 12.7997 21.4484 13.4819 20.3038L24.5819 1.80375C25.2409 0.682187 26.455 0 27.75 0ZM12.95 31.45C20.1072 31.45 25.9 37.2428 25.9 44.4C25.9 51.5572 20.1072 57.35 12.95 57.35C5.79281 57.35 0 51.5572 0 44.4C0 37.2428 5.79281 31.45 12.95 31.45ZM36.075 33.3H49.025C51.5803 33.3 53.65 35.3697 53.65 37.925V50.875C53.65 53.4303 51.5803 55.5 49.025 55.5H36.075C33.5197 55.5 31.45 53.4303 31.45 50.875V37.925C31.45 35.3697 33.5197 33.3 36.075 33.3Z" fill="black"/>
</svg>
