<svg width="37" height="37" viewBox="0 0 37 37" fill="none" xmlns="http://www.w3.org/2000/svg">
<path d="M36.4 33.8731L24.4725 21.7831C26.0975 19.5163 27.0644 16.7294 27.0644 13.7231C27.0644 6.15876 20.995 8.03002e-06 13.5363 8.03002e-06C6.06938 -0.00811697 0 6.15063 0 13.715C0 21.2794 6.06938 27.4381 13.5281 27.4381C16.7619 27.4381 19.7275 26.2844 22.0594 24.3588L33.9219 36.3919L36.4 33.8731ZM13.5281 24.2694C7.79188 24.2694 3.12 19.5325 3.12 13.715C3.12 7.89751 7.79188 3.16063 13.5281 3.16063C19.2644 3.16063 23.9362 7.89751 23.9362 13.715C23.9362 19.5325 19.2725 24.2694 13.5281 24.2694Z" fill="black"/>
<path d="M13.5281 24.2694C7.79188 24.2694 3.12 19.5325 3.12 13.715C3.12 7.89751 7.79188 3.16063 13.5281 3.16063C19.2644 3.16063 23.9362 7.89751 23.9362 13.715C23.9362 19.5325 19.2725 24.2694 13.5281 24.2694Z" fill="white"/>
</svg>
