<svg width="43" height="44" viewBox="0 0 43 44" fill="none" xmlns="http://www.w3.org/2000/svg">
<path d="M28.027 0.711794C28.3162 0.308094 28.9543 0.526864 28.9341 1.02299L28.2363 18.0855C28.2152 18.604 28.4635 19.0966 28.893 19.3878L41.9062 28.2107C42.3251 28.4948 42.1044 29.1506 41.5989 29.1243L25.7754 28.3018C25.2704 28.2756 24.7853 28.5055 24.4866 28.9136L14.612 42.4057C14.3189 42.8059 13.6846 42.581 13.709 42.0856L14.5333 25.4876C14.5588 24.9726 14.3178 24.4803 13.8955 24.1845L0.715653 14.9536C0.299968 14.6624 0.532432 14.0087 1.0386 14.0454L16.7755 15.1893C17.2964 15.2272 17.7999 14.9921 18.1041 14.5675L28.027 0.711794Z" fill="white" stroke="black"/>
</svg>
