<svg width="63" height="63" viewBox="0 0 63 63" fill="none" xmlns="http://www.w3.org/2000/svg">
<path d="M32.1091 8.27875L24.6628 15.725L28.5247 19.5869C29.97 21.0322 29.97 23.3794 28.5247 24.8247C27.0794 26.27 24.7322 26.27 23.2869 24.8247L19.425 20.9628L8.27875 32.1091C7.94344 32.4444 7.68906 32.8606 7.55031 33.3H44.7238L50.9328 27.0909C51.4994 26.5244 51.8116 25.7612 51.8116 24.975C51.8116 24.1888 51.4994 23.4141 50.9328 22.8591L36.3409 8.27875C35.7859 7.71219 35.0228 7.4 34.225 7.4C33.4272 7.4 32.6641 7.71219 32.1091 8.27875ZM3.04094 26.8713L14.1872 15.725L8.47531 10.0131C7.03 8.56781 7.03 6.22063 8.47531 4.77531C9.92063 3.33 12.2678 3.33 13.7131 4.77531L19.425 10.4872L26.8713 3.04094C28.8253 1.09844 31.4616 0 34.225 0C36.9884 0 39.6247 1.09844 41.5788 3.04094L56.1591 17.6213C58.1016 19.5753 59.2 22.2116 59.2 24.975C59.2 27.7384 58.1016 30.3747 56.1591 32.3288L32.3288 56.1591C30.3747 58.1016 27.7384 59.2 24.975 59.2C22.2116 59.2 19.5753 58.1016 17.6213 56.1591L3.04094 41.5788C1.09844 39.6247 0 36.9884 0 34.225C0 31.4616 1.09844 28.8253 3.04094 26.8713ZM55.5 62.9C51.4184 62.9 48.1 59.5816 48.1 55.5C48.1 52.5863 51.8694 46.2962 54.02 42.9316C54.7138 41.8447 56.2747 41.8447 56.9684 42.9316C59.1306 46.2962 62.8884 52.5863 62.8884 55.5C62.8884 59.5816 59.57 62.9 55.4884 62.9H55.5Z" fill="black"/>
</svg>
