<svg width="58" height="60" viewBox="0 0 58 60" fill="none" xmlns="http://www.w3.org/2000/svg">
<path d="M28.8311 0C26.7845 0 25.1311 1.65344 25.1311 3.7V7.4H6.63109C4.58453 7.4 2.93109 9.05344 2.93109 11.1V18.5C2.93109 20.5466 4.58453 22.2 6.63109 22.2H25.1311V29.6H7.39422C6.90859 29.6 6.43453 29.7966 6.08766 30.1434L0.537656 35.6934C-0.179219 36.4103 -0.179219 37.5897 0.537656 38.3066L6.08766 43.8566C6.43453 44.2034 6.90859 44.4 7.39422 44.4H25.1311V55.5C25.1311 57.5466 26.7845 59.2 28.8311 59.2C30.8777 59.2 32.5311 57.5466 32.5311 55.5V44.4H51.0311C53.0777 44.4 54.7311 42.7466 54.7311 40.7V33.3C54.7311 31.2534 53.0777 29.6 51.0311 29.6H32.5311V22.2H50.268C50.7536 22.2 51.2277 22.0034 51.5745 21.6566L57.1245 16.1066C57.8414 15.3897 57.8414 14.2103 57.1245 13.4934L51.5745 7.94344C51.2277 7.59656 50.7536 7.4 50.268 7.4H32.5311V3.7C32.5311 1.65344 30.8777 0 28.8311 0Z" fill="black"/>
</svg>
