<svg width="37" height="39" viewBox="0 0 37 39" fill="none" xmlns="http://www.w3.org/2000/svg">
<path d="M8.90393 4.50952C9.63087 1.5783 12.4767 -0.378565 15.5309 0.0617535L16.1264 0.176281C19.0598 0.91035 21.0166 3.75616 20.5763 6.81033L20.2226 9.25409L28.0397 6.87335L28.5757 6.74126C31.2427 6.21712 33.9256 7.79059 34.7329 10.4414C35.0194 11.382 35.0276 12.3295 34.8159 13.2194C35.4806 13.8424 36.0019 14.6336 36.2955 15.5721C36.6926 16.8761 36.559 18.2016 36.0437 19.3475C36.2514 19.697 36.4206 20.0737 36.5443 20.4799C37.089 22.2685 36.6451 24.109 35.5497 25.4471C36.1848 28.018 34.848 30.6599 32.4299 31.6689L31.9113 31.858L24.4932 34.1172C23.2106 34.5079 21.8612 34.6541 20.5302 34.5533L19.9591 34.4936L19.9027 34.4874L19.363 34.4026L19.3066 34.3965L18.2962 34.198C17.2786 34.0018 16.3168 33.6562 15.4287 33.1947C15.7203 35.2006 14.512 37.1649 12.5168 37.7725L10.2365 38.467C8.03461 39.1376 5.70128 37.8937 5.03068 35.6918L0.181449 19.7184C-0.489152 17.5165 0.754718 15.1832 2.95662 14.5126L5.2369 13.8181C6.00649 13.5837 6.79349 13.5854 7.5235 13.7836L8.78228 5.10722L8.79899 5.00869L8.88288 4.5938L8.9061 4.51664L8.90393 4.50952ZM3.99833 17.933C3.68479 18.0285 3.50638 18.3631 3.60187 18.6767L8.46319 34.6387C8.55868 34.9522 8.89334 35.1306 9.20688 35.0351L11.4872 34.3406C11.8007 34.2451 11.9791 33.9105 11.8836 33.5969L7.0223 17.635C6.92681 17.3214 6.59215 17.143 6.27861 17.2385L3.99833 17.933ZM15.019 3.59711C13.8147 3.42662 12.6827 4.18408 12.3792 5.3355L12.3093 5.66828L10.8856 15.5162C10.7989 16.1266 10.83 16.74 10.9724 17.3352L11.0564 17.6367L13.5066 25.6818L13.6923 26.2404C14.573 28.5185 16.5649 30.2011 18.9914 30.6769L19.9432 30.862L20.4595 30.9462C21.4646 31.0761 22.4824 30.992 23.4515 30.6968L30.8696 28.4376L31.0384 28.3784C31.8746 28.0303 32.328 27.0901 32.0589 26.2065L31.9882 26.0256C31.9616 25.9636 31.9371 25.9088 31.9033 25.849C31.4483 25.0454 31.6845 24.0312 32.4358 23.5065C33.0597 23.0751 33.3539 22.2769 33.1239 21.5216C33.0306 21.2152 32.8675 20.9611 32.6469 20.748C31.9571 20.0937 31.9005 19.013 32.5225 18.2941C32.9137 17.8401 33.0645 17.2102 32.8822 16.6116C32.7281 16.1057 32.3683 15.7169 31.9072 15.5069C31.4369 15.292 31.082 14.8939 30.9323 14.4022C30.7825 13.9105 30.8552 13.3822 31.126 12.9416C31.3917 12.5102 31.4737 11.9869 31.3196 11.481L31.2604 11.3121C30.9368 10.5308 30.1001 10.0847 29.2711 10.2516L29.0979 10.2966L18.5872 13.4976C18.0029 13.6756 17.3701 13.5413 16.9069 13.1451C16.4436 12.7489 16.2098 12.1348 16.2986 11.5315L17.041 6.29853C17.2142 5.07773 16.4311 3.93798 15.2604 3.64819L15.019 3.59711Z" fill="black"/>
<path d="M15.019 3.59711C13.8147 3.42662 12.6827 4.18408 12.3792 5.3355L12.3093 5.66828L10.8856 15.5162C10.7989 16.1266 10.83 16.74 10.9724 17.3352L11.0564 17.6367L13.5066 25.6818L13.6923 26.2404C14.573 28.5185 16.5649 30.2011 18.9914 30.6769L19.9432 30.862L20.4595 30.9462C21.4646 31.0761 22.4824 30.992 23.4515 30.6968L30.8696 28.4376L31.0384 28.3784C31.8746 28.0303 32.328 27.0901 32.0589 26.2065L31.9882 26.0256C31.9616 25.9636 31.9371 25.9088 31.9033 25.849C31.4483 25.0454 31.6845 24.0312 32.4358 23.5065C33.0597 23.0751 33.3539 22.2769 33.1239 21.5216C33.0306 21.2152 32.8675 20.9611 32.6469 20.748C31.9571 20.0937 31.9005 19.013 32.5225 18.2941C32.9137 17.8401 33.0645 17.2102 32.8822 16.6116C32.7281 16.1057 32.3683 15.7169 31.9072 15.5069C31.4369 15.292 31.082 14.8939 30.9323 14.4022C30.7825 13.9105 30.8552 13.3822 31.126 12.9416C31.3917 12.5102 31.4737 11.9869 31.3196 11.481L31.2604 11.3121C30.9368 10.5308 30.1001 10.0847 29.2711 10.2516L29.0979 10.2966L18.5872 13.4976C18.0029 13.6756 17.3701 13.5413 16.9069 13.1451C16.4436 12.7489 16.2098 12.1348 16.2986 11.5315L17.041 6.29853C17.2142 5.07773 16.4311 3.93798 15.2604 3.64819L15.019 3.59711Z" fill="white"/>
<path d="M3.99833 17.933C3.68479 18.0285 3.50638 18.3631 3.60187 18.6767L8.46319 34.6387C8.55868 34.9522 8.89334 35.1306 9.20688 35.0351L11.4872 34.3406C11.8007 34.2451 11.9791 33.9105 11.8836 33.5969L7.0223 17.635C6.92681 17.3214 6.59215 17.143 6.27861 17.2385L3.99833 17.933Z" fill="white"/>
</svg>
