<svg width="14" height="23" viewBox="0 0 14 23" fill="none" xmlns="http://www.w3.org/2000/svg">
<path d="M0.370773 12.3935L10.6377 22.6294C10.8755 22.8664 11.1979 22.9996 11.5341 22.9996C11.8704 22.9996 12.1928 22.8664 12.4306 22.6294L13.6278 21.4358C13.8644 21.1989 13.9972 20.8782 13.9972 20.5439C13.9972 20.2097 13.8644 19.889 13.6278 19.6521L5.49365 11.4998L13.6302 3.34933C13.8668 3.11243 13.9996 2.79177 13.9996 2.45749C13.9996 2.12321 13.8668 1.80255 13.6302 1.56565L12.431 0.370123C12.1933 0.133134 11.8708 0 11.5346 0C11.1984 0 10.876 0.133134 10.6382 0.370123L0.371247 10.6061C0.13354 10.8431 0 11.1646 0 11.4998C0 11.835 0.133066 12.1564 0.370773 12.3935Z" fill="#38383D" fill-opacity="0.5"/>
</svg>
