<svg width="31" height="29" viewBox="0 0 31 29" fill="none" xmlns="http://www.w3.org/2000/svg">
<path d="M4 29H27C29.2091 29 31 27.2091 31 25L31 4C31 1.79086 29.2091 0 27 0H4C1.79086 0 -1.90735e-06 1.79086 -1.90735e-06 4L-1.90735e-06 25C-1.90735e-06 27.2091 1.79086 29 4 29Z" fill="white"/>
<path d="M19.5631 13.7351C20.0377 14.1347 20.0377 14.8655 19.5631 15.265L13.3422 20.5027C12.6918 21.0503 11.6981 20.5879 11.6981 19.7377V9.26245C11.6981 8.41224 12.6918 7.94989 13.3422 8.49747L19.5631 13.7351Z" fill="#162A41"/>
</svg>
