<svg width="31" height="29" viewBox="0 0 31 29" fill="none" xmlns="http://www.w3.org/2000/svg">
<path d="M4 28.9995H27C29.2091 28.9995 31 27.2087 31 24.9995L31 3.99951C31 1.79037 29.2091 -0.000488281 27 -0.000488281H4C1.79086 -0.000488281 -1.90735e-06 1.79037 -1.90735e-06 3.99951L-1.90735e-06 24.9995C-1.90735e-06 27.2087 1.79086 28.9995 4 28.9995Z" fill="#3C97FF"/>
<path d="M19.5631 13.7351C20.0377 14.1347 20.0377 14.8655 19.5631 15.265L13.3422 20.5027C12.6918 21.0503 11.6981 20.5879 11.6981 19.7377V9.26245C11.6981 8.41224 12.6918 7.94989 13.3422 8.49747L19.5631 13.7351Z" fill="white"/>
</svg>
