<svg width="329" height="424" viewBox="0 0 329 424" fill="none" xmlns="http://www.w3.org/2000/svg">
<path d="M1.5 421.38L17.1096 404.585V381.072L23.1133 359.238L29.1169 321.729L33.9199 297.096L41.7247 259.586V236.633L50.1298 208.641L62.1372 186.247L90.3545 170.572L104.763 161.055V143.14L118.572 139.781L115.57 122.985L104.763 100.592L90.3545 69.8005L92.1556 37.8896L104.763 15.496L130.579 5.41888L160.598 1.5L191.216 15.496L210.428 37.8896L218.833 69.8005L225.437 96.113L212.229 108.989L207.426 117.387L214.03 122.985L223.636 126.904H258.458L281.872 134.182L308.288 161.055L323.898 194.085L327.5 236.633V279.741V309.972L319.695 330.686L304.086 345.242L296.281 359.238L290.878 364.836L281.272 361.477V370.435L277.069 381.072L273.467 387.23L277.069 396.188L281.272 404.585L277.069 422.5" stroke="#3C97FF" stroke-width="3" stroke-linecap="round" stroke-linejoin="round" stroke-dasharray="15 15"/>
</svg>
