<svg width="330" height="424" viewBox="0 0 330 424" fill="none" xmlns="http://www.w3.org/2000/svg">
<path d="M1.46497 421.938L17.0745 405.142V381.629L23.0782 359.795L29.0819 322.286L33.8849 297.653L41.6896 260.144V237.19L50.0948 209.198L62.1022 186.805L90.3195 171.129L104.728 161.612V143.697L118.537 140.338L115.535 123.543L104.728 101.149L90.3195 70.3579L92.1206 38.447L104.728 16.0534L130.544 5.97626L160.563 2.05737L191.181 16.0534L210.393 38.447L218.798 70.3579L225.402 96.6704L212.194 109.547L207.391 117.944L213.995 123.543L223.601 127.462H258.423L281.837 134.74L308.253 161.612L323.863 194.642L327.465 237.19V280.298V310.529L319.66 331.244L304.051 345.799L296.246 359.795L290.842 365.394L281.237 362.035V370.992L277.034 381.629L273.432 387.787L277.034 396.745L281.237 405.142L277.034 423.057" stroke="#FF2600" stroke-width="4" stroke-dasharray="18 24"/>
</svg>
